{"glyphs":{"0":{"ha":1068,"x_min":0,"x_max":0,"o":"m 684 799 b 825 658 762 799 825 735 l 825 314 b 684 173 825 236 762 173 l 384 173 b 243 314 306 173 243 236 l 243 658 b 384 799 243 735 306 799 z m 384 972 b 69 658 210 972 69 831 l 69 314 b 384 0 69 141 210 0 l 684 0 b 998 314 857 0 998 141 l 998 658 b 684 972 998 831 857 972 z "},"1":{"ha":469,"x_min":0,"x_max":0,"o":"m 400 645 b 392 717 400 670 398 694 b 368 782 387 740 378 761 b 227 923 339 844 289 893 l 227 923 b 109 954 191 941 151 951 l 109 955 l 92 955 b 91 955 92 955 91 955 l 91 955 l 69 955 l 69 783 l 92 783 b 108 782 97 783 103 782 b 227 663 170 774 219 725 l 227 -17 l 400 -17 l 400 645 b 400 645 400 645 400 645 z "},"2":{"ha":1111,"x_min":0,"x_max":0,"o":"m 243 173 l 243 286 b 344 399 243 345 287 393 l 755 399 b 760 399 757 399 758 399 l 765 399 b 960 486 841 402 910 435 b 1018 573 985 511 1004 540 b 1041 685 1033 607 1041 645 b 755 972 1041 844 913 972 l 69 972 l 69 798 l 755 798 b 868 685 818 798 868 748 b 766 573 868 627 824 578 l 762 573 l 346 572 b 93 399 232 569 135 498 b 69 286 78 364 69 326 l 69 0 l 355 0 b 356 0 355 0 355 0 l 1041 0 l 1041 173 z "},"3":{"ha":1111,"x_min":0,"x_max":0,"o":"m 1041 682 b 755 969 1041 841 913 969 l 69 969 l 69 796 l 755 796 b 868 682 817 796 868 745 b 760 569 868 622 820 572 b 755 570 758 570 757 570 l 243 570 l 243 396 l 755 396 b 760 397 757 396 758 396 b 868 283 820 394 868 344 b 755 170 868 221 817 170 l 69 170 l 69 -3 l 755 -3 b 1041 283 913 -3 1041 125 b 960 483 1041 361 1010 431 b 1041 682 1010 534 1041 604 z "},"4":{"ha":1111,"x_min":0,"x_max":0,"o":"m 868 972 l 868 572 l 356 572 b 243 685 293 572 243 623 l 243 972 l 69 972 l 69 685 b 225 431 69 574 132 478 b 356 399 264 410 308 399 l 868 399 l 868 -1 l 1041 -1 l 1041 972 z "},"5":{"ha":1111,"x_min":0,"x_max":0,"o":"m 1018 396 b 765 569 976 495 878 566 b 755 570 761 570 758 570 l 243 570 l 243 796 l 960 796 l 960 969 l 69 969 l 69 396 l 767 396 b 868 284 824 390 868 342 b 755 170 868 221 818 170 l 69 170 l 69 -3 l 755 -3 b 1041 284 913 -3 1041 125 b 1018 396 1041 323 1033 361 z "},"6":{"ha":1111,"x_min":0,"x_max":0,"o":"m 960 486 b 960 486 960 486 960 486 b 961 486 960 486 960 486 b 760 572 910 538 839 571 l 758 572 b 755 573 757 573 756 573 l 356 573 b 352 572 355 573 354 573 l 351 572 b 243 550 313 572 276 564 l 243 686 b 356 799 243 748 294 799 l 960 799 l 960 972 l 356 972 b 225 940 309 972 264 960 b 141 874 193 924 164 901 b 69 685 97 824 69 758 l 69 286 b 92 175 69 247 78 209 b 356 0 135 72 237 0 l 755 0 b 1041 286 913 0 1041 128 b 960 486 1041 364 1011 434 z m 755 173 l 356 173 b 243 286 293 173 243 224 b 351 400 243 347 291 397 l 353 400 b 356 399 354 399 355 399 l 755 399 b 758 400 756 399 757 399 l 760 400 b 868 286 820 397 868 347 b 755 173 868 224 817 173 z "},"7":{"ha":940,"x_min":0,"x_max":0,"o":"m 839 799 b 698 940 810 860 760 910 b 562 972 657 960 611 972 l 69 972 l 69 799 l 579 799 b 698 680 641 791 690 741 l 698 0 l 871 0 l 871 662 b 839 799 871 711 860 758 z "},"8":{"ha":1111,"x_min":0,"x_max":0,"o":"m 960 486 b 1041 685 1010 538 1041 608 b 960 885 1041 763 1011 833 b 760 971 910 937 839 970 b 755 972 758 972 757 972 l 356 972 b 351 971 354 972 352 972 b 243 949 313 971 276 963 b 150 885 207 934 176 912 b 69 685 101 833 69 763 b 92 574 69 646 78 608 b 151 486 106 541 126 512 b 150 486 151 486 150 486 b 69 286 101 434 69 364 b 92 175 69 247 78 209 b 356 0 135 72 237 0 l 755 0 b 1041 286 913 0 1041 128 b 960 486 1041 364 1011 434 b 960 486 960 486 960 486 z m 755 173 l 356 173 b 243 286 293 173 243 224 b 350 399 243 347 290 396 b 356 399 352 399 354 399 l 755 399 b 760 400 757 399 758 400 b 868 286 820 397 868 347 b 755 173 868 224 817 173 z m 757 573 b 755 573 756 573 756 573 l 356 573 b 353 573 355 573 354 573 b 243 685 292 574 243 624 b 351 799 243 746 291 796 l 760 799 b 868 685 820 796 868 746 b 757 573 868 624 818 574 z "},"9":{"ha":1111,"x_min":0,"x_max":0,"o":"m 1019 797 b 755 972 975 900 874 972 l 356 972 b 69 686 198 972 69 844 b 150 486 69 608 100 538 b 150 486 150 486 150 486 b 350 399 201 434 272 401 l 352 399 b 356 399 354 399 355 399 l 755 399 b 758 400 756 399 757 399 l 760 400 b 868 422 798 400 835 408 l 868 286 b 755 173 868 224 817 173 l 151 173 l 151 0 l 755 0 b 886 32 802 0 846 12 b 949 76 909 44 930 59 b 1041 287 1006 128 1041 203 l 1041 686 b 1019 797 1041 725 1033 763 z m 356 799 l 755 799 b 868 686 817 799 868 748 b 760 572 868 625 820 575 l 758 572 b 755 573 757 573 756 573 l 356 573 b 352 572 355 573 353 573 l 351 572 b 243 686 291 575 243 625 b 356 799 243 748 293 799 z "},"\u0000":{"ha":139,"x_min":0,"x_max":0,"o":""},"\n":{"ha":139,"x_min":0,"x_max":0,"o":""},"\r":{"ha":139,"x_min":0,"x_max":0,"o":""}," ":{"ha":676,"x_min":0,"x_max":0,"o":""},"!":{"ha":313,"x_min":0,"x_max":0,"o":"m 243 -10 l 243 164 l 70 164 l 70 -10 z m 69 962 l 69 729 l 116 235 l 197 235 l 243 729 l 243 962 z "},"\"":{"ha":533,"x_min":0,"x_max":0,"o":"m 464 700 l 464 1041 l 291 1041 l 291 700 z m 243 700 l 243 1041 l 69 1041 l 69 700 z "},"#":{"ha":1115,"x_min":0,"x_max":0,"o":"m 821 569 l 821 569 l 1012 569 l 1046 742 l 855 743 l 897 960 l 722 961 l 679 743 l 679 743 l 543 743 l 586 961 l 410 961 l 409 961 l 366 743 l 366 743 l 366 743 l 366 743 l 366 744 l 176 744 l 176 744 l 175 744 l 175 743 l 141 570 l 331 570 l 332 570 l 332 570 l 296 390 l 294 382 l 294 382 l 104 383 l 104 383 l 100 367 l 78 251 l 69 209 l 259 208 l 243 126 l 226 38 l 217 -9 l 217 -9 l 217 -9 l 393 -10 l 437 208 l 437 208 l 572 208 l 529 -10 l 529 -10 l 529 -10 l 705 -11 l 748 208 l 748 208 l 940 207 l 941 212 l 974 380 l 783 381 l 784 386 z m 644 569 l 608 387 l 606 382 l 471 382 l 472 387 l 508 570 l 508 570 l 644 569 l 644 569 z "},"$":{"ha":1058,"x_min":0,"x_max":0,"o":"m 989 641 l 989 646 b 726 909 989 791 871 909 l 616 909 l 616 1096 l 442 1096 l 442 909 l 332 909 b 69 646 187 909 69 791 l 69 641 b 116 492 69 585 87 534 b 150 452 126 477 138 464 b 332 378 197 406 261 378 l 367 378 b 377 378 371 378 374 378 l 442 378 l 442 195 l 332 195 b 243 284 283 195 243 235 l 243 289 l 69 289 l 69 284 b 332 21 69 139 187 21 l 442 21 l 442 -154 l 616 -154 l 616 21 l 726 21 b 989 284 871 21 989 139 l 989 289 b 942 438 989 344 971 396 b 908 478 932 453 920 466 b 726 552 861 524 798 552 l 691 552 b 681 552 687 552 684 552 l 616 552 l 616 735 l 726 735 b 815 646 775 735 815 695 l 815 641 z m 442 552 l 332 552 b 243 641 282 552 243 592 l 243 646 b 332 735 243 695 282 735 l 442 735 z m 726 378 b 815 289 776 378 815 338 l 815 284 b 726 195 815 235 776 195 l 616 195 l 616 378 z "},"%":{"ha":1289,"x_min":0,"x_max":0,"o":"m 795 951 l 284 -21 l 480 -21 l 991 951 z m 972 472 b 726 225 836 472 726 361 b 972 -21 726 89 836 -21 b 1219 225 1108 -21 1219 89 b 972 472 1219 361 1108 472 z m 972 152 b 899 225 932 152 899 185 b 972 299 899 266 932 299 b 1046 225 1013 299 1046 266 b 972 152 1046 185 1013 152 z m 562 704 b 316 951 562 840 452 951 b 69 704 180 951 69 840 b 316 458 69 568 180 458 b 562 704 452 458 562 568 z m 243 704 b 316 778 243 745 276 778 b 389 704 356 778 389 745 b 316 631 389 664 356 631 b 243 704 276 631 243 664 z "},"&":{"ha":1099,"x_min":0,"x_max":0,"o":"m 355 573 b 243 686 293 573 243 624 b 355 799 243 748 293 799 l 856 799 l 856 972 l 355 972 b 69 686 198 972 69 844 b 151 486 69 609 101 538 b 69 286 101 434 69 364 b 355 0 69 128 198 0 l 856 0 l 856 399 l 1030 399 l 1030 573 z m 683 173 l 355 173 b 243 286 293 173 243 224 b 355 399 243 348 293 399 l 683 399 z "},"'":{"ha":313,"x_min":0,"x_max":0,"o":"m 243 697 l 243 1041 l 69 1041 l 69 697 z "},"(":{"ha":556,"x_min":0,"x_max":0,"o":"m 486 1030 l 269 1030 b 274 -223 110 796 -89 333 l 486 -223 b 486 1030 5 405 362 893 z "},")":{"ha":556,"x_min":0,"x_max":0,"o":"m 287 1030 l 70 1030 b 69 -223 194 893 550 405 l 282 -223 b 287 1030 645 333 446 796 z "},"*":{"ha":538,"x_min":0,"x_max":0,"o":"m 323 818 b 468 850 371 829 420 839 b 438 940 458 880 448 910 b 303 882 393 921 348 901 b 317 1030 307 932 312 981 b 223 1030 286 1030 254 1030 b 235 882 227 981 231 931 l 235 882 b 99 940 190 901 144 921 b 69 850 89 910 79 880 b 214 818 118 839 166 829 b 117 706 182 781 150 744 b 194 651 143 688 168 669 b 269 778 219 693 244 736 b 343 650 293 736 318 693 b 420 706 369 669 394 687 b 323 818 388 743 355 781 z "},"+":{"ha":797,"x_min":0,"x_max":0,"o":"m 485 546 l 485 788 l 312 788 l 312 546 l 69 546 l 69 372 l 312 372 l 312 130 l 485 130 l 485 372 l 728 372 l 728 546 z "},",":{"ha":313,"x_min":0,"x_max":0,"o":"m 69 164 l 69 -10 l 70 -10 l 156 -184 l 243 -184 l 243 164 z "},"-":{"ha":797,"x_min":0,"x_max":0,"o":"m 728 372 l 728 546 l 69 546 l 69 372 z "},".":{"ha":313,"x_min":0,"x_max":0,"o":"m 243 -10 l 243 164 l 69 164 l 69 -10 z "},"/":{"ha":594,"x_min":0,"x_max":0,"o":"m 345 951 l 244 596 l 195 423 l 69 -21 l 250 -21 l 375 423 l 425 596 l 525 951 z "},":":{"ha":313,"x_min":0,"x_max":0,"o":"m 243 -10 l 243 164 l 69 164 l 69 -10 z m 243 521 l 243 694 l 69 694 l 69 521 z "},";":{"ha":313,"x_min":0,"x_max":0,"o":"m 69 -10 l 70 -10 l 156 -184 l 243 -184 l 243 164 l 69 164 z m 243 521 l 243 694 l 69 694 l 69 521 z "},"<":{"ha":797,"x_min":0,"x_max":0,"o":"m 575 551 l 728 606 l 728 790 l 485 704 l 312 642 l 69 556 l 69 372 l 312 286 l 485 224 l 728 138 l 728 322 l 575 376 l 485 408 l 329 464 l 485 520 z "},"=":{"ha":797,"x_min":0,"x_max":0,"o":"m 728 510 l 728 683 l 69 683 l 69 510 z m 728 216 l 728 390 l 69 390 l 69 216 z "},">":{"ha":797,"x_min":0,"x_max":0,"o":"m 486 641 l 313 703 l 69 789 l 69 605 l 223 550 l 313 519 l 469 463 l 313 407 l 223 375 l 69 321 l 69 137 l 313 223 l 486 285 l 728 371 l 728 555 z "},"?":{"ha":1058,"x_min":0,"x_max":0,"o":"m 616 -10 l 616 164 l 442 164 l 442 -10 z m 956 789 b 679 962 906 892 800 962 l 379 962 b 102 789 258 962 152 892 b 69 653 81 748 69 702 l 243 653 b 379 789 243 728 304 789 l 679 789 b 815 652 754 789 815 728 b 679 516 815 577 754 516 l 442 516 l 442 235 l 616 235 l 616 343 l 679 343 b 989 652 849 343 989 481 b 956 789 989 701 977 748 z "},"@":{"ha":1111,"x_min":0,"x_max":0,"o":"m 556 962 b 69 476 287 962 69 744 b 556 -10 69 207 287 -10 l 1042 -10 l 1042 163 l 556 163 b 243 476 383 163 243 303 b 556 789 243 648 383 789 l 868 789 l 868 510 l 695 510 l 695 615 l 556 615 l 556 615 b 556 615 556 615 556 615 b 416 476 479 615 416 553 b 556 337 416 399 479 337 b 556 337 556 337 556 337 l 556 337 l 1042 337 l 1042 962 z "},"A":{"ha":1021,"x_min":0,"x_max":0,"o":"m 918 174 l 511 972 l 104 174 l 15 0 l 210 0 l 299 174 l 511 590 l 723 174 l 811 0 l 1006 0 z "},"B":{"ha":1076,"x_min":0,"x_max":0,"o":"m 903 568 b 945 710 929 609 945 657 b 683 972 945 855 828 972 l 69 972 l 69 0 l 70 0 l 70 0 l 732 0 b 1041 310 903 0 1041 139 b 903 568 1041 418 986 512 z m 243 799 l 683 799 b 772 710 732 799 772 759 b 683 620 772 660 732 620 l 243 620 z m 731 173 l 243 173 l 243 446 l 731 446 b 868 310 807 446 868 385 b 731 173 868 235 807 173 z "},"C":{"ha":1097,"x_min":0,"x_max":0,"o":"m 542 799 l 1028 799 l 1028 972 l 542 972 b 56 486 273 972 56 755 b 542 0 56 218 273 0 l 1028 0 l 1028 173 l 542 173 b 229 486 369 173 229 313 b 542 799 229 659 369 799 z "},"D":{"ha":1111,"x_min":0,"x_max":0,"o":"m 69 972 l 69 0 l 556 0 b 899 143 690 0 811 54 b 926 173 908 152 918 163 b 1041 486 998 258 1041 367 b 556 972 1041 755 824 972 z m 243 799 l 556 799 b 868 486 728 799 868 658 b 556 173 868 314 728 173 l 243 173 z "},"E":{"ha":1111,"x_min":0,"x_max":0,"o":"m 332 799 l 1041 799 l 1041 972 l 332 972 b 69 710 187 972 69 854 l 69 263 b 332 0 69 118 187 0 l 1041 0 l 1041 173 l 332 173 b 243 263 282 173 243 214 l 243 446 l 868 446 l 868 619 l 243 619 l 243 710 b 332 799 243 759 282 799 z "},"F":{"ha":1111,"x_min":0,"x_max":0,"o":"m 332 972 b 69 710 187 972 69 854 l 69 1 l 242 1 l 242 446 l 868 446 l 868 619 l 243 619 l 243 710 b 332 799 243 759 283 799 l 1041 799 l 1041 972 z "},"G":{"ha":1111,"x_min":0,"x_max":0,"o":"m 556 799 l 1042 799 l 1042 972 l 556 972 b 69 486 287 972 69 755 b 556 0 69 218 287 0 l 1042 0 l 1042 533 l 556 533 l 556 359 l 868 359 l 868 173 l 556 173 b 243 486 383 173 243 314 b 556 799 243 659 383 799 z "},"H":{"ha":1111,"x_min":0,"x_max":0,"o":"m 868 972 l 868 620 l 243 620 l 243 972 l 69 972 l 69 1 l 243 1 l 243 446 l 868 446 l 868 0 l 1041 0 l 1041 972 z "},"I":{"ha":313,"x_min":0,"x_max":0,"o":"m 243 0 l 243 972 l 69 972 l 69 0 z "},"J":{"ha":1111,"x_min":0,"x_max":0,"o":"m 869 972 l 869 262 b 779 173 869 213 828 173 l 332 173 b 243 262 283 173 243 213 l 243 445 l 69 445 l 69 262 b 332 0 69 117 187 0 l 779 0 b 1042 262 924 0 1042 117 l 1042 972 z "},"K":{"ha":1111,"x_min":0,"x_max":0,"o":"m 1042 973 l 785 973 l 514 725 l 385 607 l 243 476 l 243 973 l 69 973 l 69 2 l 243 2 l 243 241 l 488 465 l 823 2 l 1038 2 l 616 583 z "},"L":{"ha":940,"x_min":0,"x_max":0,"o":"m 362 174 b 243 293 300 182 251 231 l 243 972 l 69 972 l 69 310 b 102 174 69 261 81 215 b 243 32 131 112 181 62 b 379 1 284 12 330 1 l 871 1 l 871 174 z "},"M":{"ha":1111,"x_min":0,"x_max":0,"o":"m 868 838 l 556 598 l 243 838 l 69 972 l 69 0 l 243 0 l 243 619 l 414 488 l 556 378 l 698 488 l 868 619 l 868 0 l 1042 0 l 1042 972 z "},"N":{"ha":1111,"x_min":0,"x_max":0,"o":"m 868 972 l 868 353 l 243 835 l 69 969 l 69 0 l 243 0 l 243 615 l 868 134 l 1042 0 l 1042 972 z "},"O":{"ha":1042,"x_min":0,"x_max":0,"o":"m 521 972 b 35 486 252 972 35 754 b 521 0 35 218 252 0 b 1006 486 789 0 1006 218 b 521 972 1006 754 789 972 z m 521 173 b 208 486 348 173 208 314 b 521 799 208 659 348 799 b 833 486 693 799 833 659 b 521 173 833 314 693 173 z "},"P":{"ha":1014,"x_min":0,"x_max":0,"o":"m 868 896 b 683 973 821 943 755 973 l 70 973 l 70 973 l 69 973 l 69 0 l 243 0 l 243 447 l 708 447 l 708 449 b 716 450 710 449 713 449 b 791 471 742 453 768 460 b 945 710 882 512 945 604 b 868 896 945 782 915 848 z m 719 629 b 683 621 708 623 695 621 l 243 621 l 243 800 l 683 800 b 745 774 713 800 734 785 b 772 710 755 764 772 742 b 719 629 772 675 751 643 z "},"Q":{"ha":1111,"x_min":0,"x_max":0,"o":"m 1041 486 b 555 972 1041 754 824 972 b 69 486 287 972 69 754 b 555 0 69 218 287 0 b 560 0 557 0 558 0 l 1041 0 l 1041 174 l 927 174 b 1041 486 998 258 1041 367 z m 563 174 l 555 174 l 555 173 b 243 486 383 173 243 314 b 555 799 243 658 383 799 b 868 486 728 799 868 658 b 563 174 868 316 732 178 z "},"R":{"ha":1014,"x_min":0,"x_max":0,"o":"m 716 449 b 716 449 716 449 716 449 b 791 471 742 452 768 460 b 945 710 882 512 945 603 b 868 895 945 782 916 848 b 683 972 821 943 756 972 l 69 972 l 69 0 l 243 0 l 243 447 l 416 447 b 564 364 479 447 534 413 l 568 356 l 661 174 l 750 0 l 944 0 l 856 174 z m 243 620 l 243 799 l 683 799 b 745 774 713 799 734 785 b 772 710 755 763 772 741 b 719 628 772 674 752 643 b 683 620 708 622 696 620 z "},"S":{"ha":1058,"x_min":0,"x_max":0,"o":"m 989 704 l 989 710 b 726 972 989 854 871 972 l 332 972 b 69 710 187 972 69 854 l 69 704 b 116 555 69 649 87 598 b 150 515 126 540 138 527 b 332 442 197 469 261 442 l 681 442 b 815 308 755 442 815 382 b 681 174 815 234 755 174 l 377 174 b 243 308 303 174 243 234 l 69 308 b 377 1 69 138 207 1 l 681 1 b 989 308 851 1 989 138 b 919 502 989 381 963 449 b 908 515 916 506 912 511 b 681 615 852 577 771 615 l 332 615 b 243 704 282 615 243 655 l 243 710 b 332 798 243 759 282 798 l 726 798 b 815 710 775 798 815 759 l 815 704 z "},"T":{"ha":1111,"x_min":0,"x_max":0,"o":"m 69 971 l 69 798 l 469 798 l 469 0 l 642 0 l 642 798 l 1041 798 l 1041 971 z "},"U":{"ha":1111,"x_min":0,"x_max":0,"o":"m 869 972 l 869 486 b 556 173 869 313 728 173 b 243 486 383 173 243 313 l 243 972 l 69 972 l 69 486 b 556 0 69 218 287 0 b 1042 486 824 0 1042 218 l 1042 972 z "},"V":{"ha":1021,"x_min":0,"x_max":0,"o":"m 811 972 l 723 798 l 511 382 l 299 798 l 210 972 l 15 972 l 104 798 l 511 0 l 918 798 l 1006 972 z "},"W":{"ha":1358,"x_min":0,"x_max":0,"o":"m 1289 972 l 1109 972 l 934 386 l 787 591 l 758 630 l 679 738 l 601 630 l 573 591 l 425 386 l 425 386 l 425 386 l 250 972 l 69 972 l 296 210 l 359 1 l 359 1 l 359 1 l 487 177 l 679 443 l 872 177 l 872 177 l 1000 0 l 1000 0 l 1000 0 l 1063 210 l 1063 210 z "},"X":{"ha":1042,"x_min":0,"x_max":0,"o":"m 35 -4 l 37 -1 l 35 -1 z m 1006 -1 l 1005 -1 l 1006 -3 z m 1006 972 l 788 972 l 521 626 l 254 972 l 35 972 l 411 484 l 37 -1 l 256 -1 l 521 343 l 786 -1 l 1005 -1 l 630 484 l 1006 972 z "},"Y":{"ha":1001,"x_min":0,"x_max":0,"o":"m 769 974 l 501 628 l 234 974 l 15 974 l 392 486 l 392 486 l 415 456 l 415 1 l 589 1 l 589 459 l 610 486 l 611 486 l 987 973 l 987 974 z m 15 -2 l 18 1 l 15 1 z m 987 -1 l 987 1 l 985 1 z "},"Z":{"ha":1111,"x_min":0,"x_max":0,"o":"m 425 174 l 554 343 l 664 484 l 905 798 l 1040 972 l 1040 972 l 822 972 l 821 972 l 69 972 l 69 798 l 687 798 l 554 626 l 445 484 l 206 174 l 72 1 l 71 -1 l 289 -1 l 291 1 l 1042 1 l 1042 174 z "},"[":{"ha":489,"x_min":0,"x_max":0,"o":"m 420 855 l 420 1029 l 69 1029 l 69 -221 l 420 -221 l 420 -48 l 243 -48 l 243 855 z "},"\\":{"ha":594,"x_min":0,"x_max":0,"o":"m 399 423 l 350 596 l 250 951 l 69 951 l 170 596 l 219 423 l 345 -21 l 525 -21 z "},"]":{"ha":489,"x_min":0,"x_max":0,"o":"m 69 1030 l 69 856 l 247 856 l 247 -47 l 70 -47 l 70 -220 l 420 -220 l 420 1030 z "},"_":{"ha":1111,"x_min":0,"x_max":0,"o":"m 1041 -254 l 1041 -81 l 69 -81 l 69 -254 z "},"a":{"ha":1019,"x_min":0,"x_max":0,"o":"m 916 174 l 509 972 l 102 174 l 14 0 l 208 0 l 297 174 l 509 590 l 721 174 l 810 0 l 1005 0 z "},"b":{"ha":1076,"x_min":0,"x_max":0,"o":"m 903 568 b 945 710 929 609 945 657 b 683 972 945 854 828 972 l 69 972 l 69 0 l 70 0 l 70 0 l 732 0 b 1041 310 903 0 1041 139 b 903 568 1041 418 986 512 z m 243 799 l 683 799 b 772 710 732 799 772 759 b 683 620 772 660 732 620 l 243 620 z m 731 173 l 243 173 l 243 446 l 731 446 b 868 310 807 446 868 385 b 731 173 868 235 807 173 z "},"c":{"ha":1097,"x_min":0,"x_max":0,"o":"m 542 799 l 1028 799 l 1028 972 l 542 972 b 56 486 273 972 56 755 b 542 0 56 218 273 0 l 1028 0 l 1028 173 l 542 173 b 229 486 369 173 229 313 b 542 799 229 659 369 799 z "},"d":{"ha":1111,"x_min":0,"x_max":0,"o":"m 556 972 l 69 972 l 69 0 l 556 0 b 899 143 690 0 811 54 b 926 173 908 153 918 163 b 1041 486 998 258 1041 367 b 556 972 1041 755 824 972 z m 556 173 l 243 173 l 243 799 l 556 799 b 868 486 728 799 868 658 b 556 173 868 314 728 173 z "},"e":{"ha":1111,"x_min":0,"x_max":0,"o":"m 332 799 l 1041 799 l 1041 972 l 332 972 b 69 710 187 972 69 854 l 69 263 b 332 0 69 118 187 0 l 1041 0 l 1041 173 l 332 173 b 243 263 282 173 243 214 l 243 446 l 868 446 l 868 619 l 243 619 l 243 710 b 332 799 243 759 282 799 z "},"f":{"ha":1111,"x_min":0,"x_max":0,"o":"m 332 972 b 69 710 187 972 69 854 l 69 1 l 242 1 l 242 446 l 868 446 l 868 619 l 243 619 l 243 710 b 332 799 243 759 283 799 l 1041 799 l 1041 972 z "},"g":{"ha":1111,"x_min":0,"x_max":0,"o":"m 556 799 l 1042 799 l 1042 972 l 556 972 b 69 486 287 972 69 755 b 556 0 69 218 287 0 l 1042 0 l 1042 533 l 556 533 l 556 359 l 868 359 l 868 173 l 556 173 b 243 486 383 173 243 313 b 556 799 243 659 383 799 z "},"h":{"ha":1111,"x_min":0,"x_max":0,"o":"m 868 972 l 868 620 l 243 620 l 243 972 l 69 972 l 69 1 l 243 1 l 243 446 l 868 446 l 868 0 l 1041 0 l 1041 972 z "},"i":{"ha":313,"x_min":0,"x_max":0,"o":"m 243 0 l 243 972 l 69 972 l 69 0 z "},"j":{"ha":1111,"x_min":0,"x_max":0,"o":"m 869 972 l 869 262 b 779 173 869 213 828 173 l 332 173 b 243 262 283 173 243 213 l 243 445 l 69 445 l 69 262 b 332 0 69 117 187 0 l 779 0 b 1042 262 924 0 1042 117 l 1042 972 z "},"k":{"ha":1111,"x_min":0,"x_max":0,"o":"m 1042 973 l 785 973 l 514 725 l 385 607 l 243 476 l 243 973 l 69 973 l 69 2 l 243 2 l 243 241 l 488 465 l 823 2 l 1038 2 l 616 583 z "},"l":{"ha":940,"x_min":0,"x_max":0,"o":"m 362 174 b 243 293 300 182 251 231 l 243 972 l 69 972 l 69 310 b 102 174 69 261 81 215 b 243 32 131 112 181 62 b 379 1 284 12 330 1 l 871 1 l 871 174 z "},"m":{"ha":1111,"x_min":0,"x_max":0,"o":"m 868 838 l 556 597 l 243 838 l 69 972 l 69 0 l 243 0 l 243 619 l 414 488 l 556 378 l 698 488 l 868 619 l 868 0 l 1042 0 l 1042 972 z "},"n":{"ha":1111,"x_min":0,"x_max":0,"o":"m 868 972 l 868 353 l 243 835 l 69 969 l 69 0 l 243 0 l 243 615 l 868 134 l 1042 0 l 1042 972 z "},"o":{"ha":1044,"x_min":0,"x_max":0,"o":"m 522 972 b 36 486 254 972 36 754 b 522 0 36 218 254 0 b 1008 486 790 0 1008 218 b 522 972 1008 754 790 972 z m 522 173 b 209 486 350 173 209 314 b 522 799 209 659 350 799 b 835 486 694 799 835 659 b 522 173 835 314 694 173 z "},"p":{"ha":1014,"x_min":0,"x_max":0,"o":"m 868 896 b 683 973 821 943 755 973 l 70 973 l 70 973 l 69 973 l 69 0 l 243 0 l 243 447 l 708 447 l 708 449 b 716 450 710 449 713 449 b 791 471 742 453 768 460 b 945 710 882 512 945 604 b 868 896 945 782 915 848 z m 719 629 b 683 621 708 623 695 621 l 243 621 l 243 800 l 683 800 b 745 774 713 800 734 785 b 772 710 755 764 772 742 b 719 629 772 675 751 643 z "},"q":{"ha":1111,"x_min":0,"x_max":0,"o":"m 1041 486 b 555 972 1041 754 824 972 b 69 486 287 972 69 754 b 555 0 69 218 287 0 b 560 0 557 0 558 0 l 1041 0 l 1041 174 l 927 174 b 1041 486 998 258 1041 367 z m 563 174 l 555 174 l 555 173 b 243 486 383 173 243 314 b 555 799 243 658 383 799 b 868 486 728 799 868 658 b 563 174 868 316 732 178 z "},"r":{"ha":1014,"x_min":0,"x_max":0,"o":"m 716 449 b 716 449 716 449 716 449 b 791 470 742 452 768 460 b 945 710 882 511 945 603 b 868 895 945 782 916 848 b 683 972 821 943 756 972 l 69 972 l 69 0 l 243 0 l 243 447 l 416 447 b 564 364 479 447 534 413 l 568 356 l 661 174 l 750 0 l 944 0 l 856 174 z m 243 620 l 243 799 l 683 799 b 745 774 713 799 734 785 b 772 710 755 763 772 741 b 719 628 772 674 752 643 b 683 620 708 622 696 620 z "},"s":{"ha":1058,"x_min":0,"x_max":0,"o":"m 989 704 l 989 710 b 726 972 989 854 871 972 l 332 972 b 69 710 187 972 69 854 l 69 704 b 116 555 69 649 87 597 b 150 515 126 540 138 527 b 332 442 197 469 261 442 l 681 442 b 815 308 755 442 815 382 b 681 174 815 234 755 174 l 377 174 b 243 308 303 174 243 234 l 69 308 b 377 1 69 138 207 1 l 681 1 b 989 308 851 1 989 138 b 919 502 989 381 963 449 b 908 515 916 506 912 511 b 681 615 852 577 771 615 l 332 615 b 243 704 282 615 243 655 l 243 710 b 332 798 243 759 282 798 l 726 798 b 815 710 775 798 815 759 l 815 704 z "},"t":{"ha":1111,"x_min":0,"x_max":0,"o":"m 69 971 l 69 798 l 469 798 l 469 0 l 642 0 l 642 798 l 1041 798 l 1041 971 z "},"u":{"ha":1111,"x_min":0,"x_max":0,"o":"m 869 972 l 869 486 b 556 173 869 313 728 173 b 243 486 383 173 243 313 l 243 972 l 69 972 l 69 486 b 556 0 69 218 287 0 b 1042 486 824 0 1042 218 l 1042 972 z "},"v":{"ha":1019,"x_min":0,"x_max":0,"o":"m 810 972 l 721 798 l 509 382 l 297 798 l 208 972 l 14 972 l 102 798 l 509 0 l 916 798 l 1005 972 z "},"w":{"ha":1358,"x_min":0,"x_max":0,"o":"m 1289 972 l 1109 972 l 934 386 l 787 591 l 758 630 l 679 738 l 601 630 l 573 591 l 425 386 l 425 386 l 425 386 l 250 972 l 69 972 l 296 209 l 359 1 l 359 1 l 359 1 l 487 177 l 679 443 l 872 177 l 872 177 l 1000 0 l 1000 0 l 1000 0 l 1063 209 l 1063 210 z "},"x":{"ha":1042,"x_min":0,"x_max":0,"o":"m 35 -4 l 37 -1 l 35 -1 z m 1006 -1 l 1005 -1 l 1006 -3 z m 1006 972 l 788 972 l 521 626 l 254 972 l 35 972 l 411 484 l 37 -1 l 256 -1 l 521 343 l 786 -1 l 1005 -1 l 630 484 l 1006 972 z "},"y":{"ha":1111,"x_min":0,"x_max":0,"o":"m 823 974 l 556 628 l 288 974 l 69 974 l 446 486 l 446 485 l 470 456 l 470 1 l 643 1 l 643 459 l 664 485 l 665 486 l 1041 973 l 1041 974 z m 69 -2 l 72 1 l 69 1 z m 1041 -1 l 1041 1 l 1039 1 z "},"z":{"ha":1111,"x_min":0,"x_max":0,"o":"m 425 174 l 554 343 l 664 484 l 905 798 l 1040 972 l 1040 972 l 822 972 l 821 972 l 69 972 l 69 798 l 687 798 l 554 626 l 445 484 l 206 174 l 72 1 l 71 -1 l 289 -1 l 291 1 l 1042 1 l 1042 174 z "},"{":{"ha":529,"x_min":0,"x_max":0,"o":"m 381 -44 b 351 -20 366 -44 354 -33 l 351 290 b 349 320 351 300 351 310 b 314 407 344 352 332 381 b 349 493 332 432 344 461 b 351 523 351 503 351 513 l 351 833 b 381 857 354 846 366 857 l 459 857 l 459 1030 l 381 1030 b 351 1028 371 1030 361 1030 b 177 827 253 1013 177 929 l 177 517 b 148 493 175 504 162 493 l 69 493 l 69 320 l 148 320 b 177 296 162 320 175 310 l 177 -14 b 351 -215 177 -116 253 -200 b 381 -217 361 -216 371 -217 l 459 -217 l 459 -44 z "},"}":{"ha":529,"x_min":0,"x_max":0,"o":"m 381 507 b 351 531 366 507 354 518 l 351 841 b 177 1042 351 943 276 1028 b 148 1044 168 1044 158 1044 l 69 1044 l 69 871 l 148 871 b 177 847 162 871 175 861 l 177 537 b 180 507 177 527 178 517 b 215 421 184 475 197 446 b 180 334 197 395 184 366 b 177 305 178 324 177 315 l 177 -6 b 148 -30 175 -19 162 -30 l 69 -30 l 69 -203 l 148 -203 b 177 -200 158 -203 168 -202 b 351 0 276 -186 351 -102 l 351 310 b 381 334 354 324 366 334 l 459 334 l 459 350 l 459 507 z "},"~":{"ha":821,"x_min":0,"x_max":0,"o":"m 460 522 b 411 543 443 530 426 537 l 411 543 b 411 543 411 543 411 543 b 263 572 356 563 307 573 b 69 495 189 571 127 543 l 69 324 b 70 324 70 324 70 324 l 70 324 b 248 409 146 374 194 406 b 361 382 281 411 316 403 b 411 361 378 373 395 366 l 411 361 b 411 361 411 361 411 361 b 752 408 557 305 659 333 l 752 580 b 460 522 629 500 582 465 z "}," ":{"ha":676,"x_min":0,"x_max":0,"o":""},"£":{"ha":1046,"x_min":0,"x_max":0,"o":"m 976 564 l 976 688 b 960 777 976 719 971 749 b 713 950 924 878 827 950 l 507 950 b 260 777 393 950 296 878 b 244 688 250 749 244 719 l 244 564 l 69 564 l 69 391 l 244 391 l 244 -21 l 976 -21 l 976 152 l 418 152 l 418 391 l 730 391 l 730 564 l 418 564 l 418 688 b 507 777 418 737 458 777 l 713 777 b 803 688 762 777 803 737 l 803 564 z "},"­":{"ha":139,"x_min":0,"x_max":0,"o":""},"×":{"ha":728,"x_min":0,"x_max":0,"o":"m 658 630 l 535 753 l 364 581 l 192 753 l 69 630 l 241 459 l 69 287 l 192 165 l 364 336 l 535 165 l 658 287 l 486 459 z "},"÷":{"ha":797,"x_min":0,"x_max":0,"o":"m 728 372 l 728 546 l 69 546 l 69 372 z m 485 615 l 485 788 l 312 788 l 312 615 z m 485 130 l 485 303 l 312 303 l 312 130 z "},"‘":{"ha":313,"x_min":0,"x_max":0,"o":"m 243 868 l 156 1041 l 69 1041 l 69 694 l 243 694 l 243 868 z "},"’":{"ha":313,"x_min":0,"x_max":0,"o":"m 69 1041 l 69 867 l 70 867 l 156 694 l 243 694 l 243 1041 z "},"“":{"ha":533,"x_min":0,"x_max":0,"o":"m 464 867 l 378 1041 l 291 1041 l 291 694 l 464 694 l 464 867 z m 156 1041 l 69 1041 l 69 694 l 243 694 l 243 867 l 243 867 z "},"”":{"ha":533,"x_min":0,"x_max":0,"o":"m 69 867 l 70 867 l 156 694 l 243 694 l 243 1041 l 69 1041 z m 291 1041 l 291 867 l 291 867 l 378 694 l 464 694 l 464 1041 z "},"€":{"ha":1069,"x_min":0,"x_max":0,"o":"m 1000 777 l 1000 950 l 691 950 b 259 688 503 950 340 844 l 69 688 l 69 515 l 207 515 b 207 514 207 515 207 514 b 205 465 205 498 205 482 b 206 428 205 452 205 440 l 69 428 l 69 255 l 253 255 b 253 255 253 255 253 255 b 691 -21 331 91 497 -21 l 1000 -21 l 1000 152 l 691 152 b 460 255 599 152 516 192 b 460 255 460 255 460 255 l 832 255 l 832 428 l 380 428 b 378 465 378 440 378 452 b 382 514 378 482 379 498 b 383 515 382 514 383 515 l 832 515 l 832 688 l 472 688 b 691 777 528 743 605 777 z "}}}
